<svg xmlns="http://www.w3.org/2000/svg" viewBox="0 0 30 50.3"><title>logoentnegatif_2</title><g id="Layer_2" data-name="Layer 2"><g id="Layer_1-2" data-name="Layer 1"><path d="M30,0V46.26H0V0ZM2.79,43.31H27.18V33.44H2.79ZM18.34,30.55H27c.23,0,.23,0,.23-.23q0-4.75,0-9.5c0-.26,0-.29-.26-.2a3.12,3.12,0,0,1-1.81.07,7.16,7.16,0,0,1-2.23-.93,12.05,12.05,0,0,1-2.31-1.84c-.14-.14-.25-.31-.38-.45a11,11,0,0,0-1.79-1.39,12.32,12.32,0,0,0-2.57-1.3,5.64,5.64,0,0,0-1.59-.41c-.32,0-.63-.13-1-.13-.59,0-1.18,0-1.77.07h-.05l-.9.13-.44.07a7.55,7.55,0,0,0-.81.21,8.8,8.8,0,0,0-1,.41c-.61.3-1.23.61-1.81,1a7.31,7.31,0,0,1-1.18.62A7.08,7.08,0,0,1,3,17.19c-.14,0-.2.05-.2.2,0,.84,0,1.69,0,2.53,0,.21.08.29.3.28l1-.07A6.78,6.78,0,0,0,4.79,20a6.61,6.61,0,0,0,1.77-.65,1.23,1.23,0,0,0,.71-.82A1.91,1.91,0,0,1,7.54,18a3.76,3.76,0,0,1,1.73-1.47A4.5,4.5,0,0,1,11,16.11c.39,0,.79,0,1.19,0a3.15,3.15,0,0,1,.72.09c.62.17,1.24.34,1.84.57a10.62,10.62,0,0,1,1.48.73,11.25,11.25,0,0,1,1.53,1.11A8.73,8.73,0,0,1,19.06,20a7.79,7.79,0,0,1,1.09,1.86,4.93,4.93,0,0,1,.3,2.8,3.17,3.17,0,0,1-1.21,1.91,4.54,4.54,0,0,1-2.48.91,7,7,0,0,1-2.19-.15A10.76,10.76,0,0,1,11.24,26a21.25,21.25,0,0,1-2-1.57,18.17,18.17,0,0,0-1.63-1.16,6.89,6.89,0,0,0-2.08-.8c-.5-.12-1-.2-1.51-.27-.32,0-.64-.05-1-.07a.21.21,0,0,0-.25.22q0,1,0,2a.17.17,0,0,0,.11.11L4,24.52A5.39,5.39,0,0,1,5.52,25a6.9,6.9,0,0,1,2.16,1.53,7.65,7.65,0,0,1,1,1.33,7.22,7.22,0,0,1,.85,2.49c0,.18.08.22.24.22Zm8.8-16.17h0c0-.07,0-.15,0-.22q0-5.46,0-10.92c0-.27,0-.27-.27-.27H7.41a.4.4,0,0,0-.14,0,.42.42,0,0,0-.2.12,2.38,2.38,0,0,1-1.23,1A8,8,0,0,1,3,4.62c-.16,0-.22.06-.22.22,0,.51,0,1,0,1.53,0,.14,0,.2.19.2a6.75,6.75,0,0,0,1.89-.24,1.41,1.41,0,0,0,.78-.53A2,2,0,0,1,6,5.37,3.74,3.74,0,0,1,8.13,4.7c.57,0,1.14,0,1.71,0H10c.47.09,1,.15,1.41.28a16.41,16.41,0,0,1,2,.64,8.24,8.24,0,0,1,2.13,1.25A3.5,3.5,0,0,1,16.77,8.5a1.23,1.23,0,0,1-.29,1.27,3.22,3.22,0,0,1-2.26.94,7.68,7.68,0,0,1-2.18,0c-.56-.11-1.14-.17-1.7-.33A11,11,0,0,1,7.13,8.9a3,3,0,0,0-.75-.36c-.5-.16-1-.28-1.52-.42a7.11,7.11,0,0,0-1.91-.2c-.13,0-.18,0-.17.17q0,.83,0,1.67c0,.14,0,.17.18.17A6.75,6.75,0,0,1,4.07,10a11.18,11.18,0,0,1,1.47.44A3.66,3.66,0,0,1,7,11.38a4.15,4.15,0,0,0,1.66,1,6.61,6.61,0,0,0,1.42.33,10.46,10.46,0,0,0,1.56.13c.52,0,1,0,1.56,0a9.93,9.93,0,0,0,1.43-.16,7.66,7.66,0,0,0,2.32-.81,1.46,1.46,0,0,0,.81-1,2,2,0,0,1,1.53-1.52,3.12,3.12,0,0,1,1.58,0,9.67,9.67,0,0,1,1.67.57,9.6,9.6,0,0,1,1.94,1.3,13.55,13.55,0,0,1,1.92,2c.24.31.45.65.67,1Z"/><path d="M17.22,49.73c0-.33,0-.61,0-.89,0-.1,0-.21.14-.21s.13.11.13.21c0,.41,0,.81,0,1.22a.63.63,0,0,1-.09.21c-.07,0-.15-.06-.19-.12-.22-.3-.42-.61-.67-.91q0,.28,0,.56a1.56,1.56,0,0,1,0,.32c0,.06-.09.1-.13.15s-.12-.09-.12-.14c0-.45,0-.9,0-1.35a.19.19,0,0,1,.09-.15.19.19,0,0,1,.16.08C16.75,49,17,49.36,17.22,49.73Z"/><path d="M7.36,49.73c0-.33,0-.61,0-.89,0-.1,0-.21.13-.22s.14.11.14.21c0,.41,0,.83,0,1.24,0,.07-.06.13-.09.2s-.15-.06-.19-.12c-.22-.3-.43-.61-.68-.92q0,.17,0,.35a5.1,5.1,0,0,1,0,.52c0,.06-.08.11-.13.17s-.12-.11-.12-.16c0-.44,0-.89,0-1.33a.19.19,0,0,1,.09-.15.19.19,0,0,1,.16.08c.2.28.39.56.58.84Z"/><path d="M28.52,49.23a.48.48,0,0,1,.63,0,1,1,0,0,1,.18-.11.4.4,0,0,1,.58.39c0,.18,0,.37,0,.56s0,.19-.14.16-.1-.1-.1-.16,0-.32,0-.48-.08-.25-.23-.25a.22.22,0,0,0-.24.25,4.93,4.93,0,0,1,0,.5c0,.06-.08.11-.12.16s-.1-.11-.11-.16,0-.33,0-.5-.06-.24-.22-.24-.24.07-.24.24,0,.31,0,.47,0,.19-.12.2-.12-.1-.12-.19c0-.24,0-.49,0-.73,0-.06,0-.16.07-.18S28.44,49.21,28.52,49.23Z"/><path d="M5,50.28A.64.64,0,0,1,4.45,50s0-.13,0-.2.14,0,.18,0a.54.54,0,0,0,.57.14.27.27,0,0,0,.15-.17.25.25,0,0,0-.11-.2,3.23,3.23,0,0,0-.41-.17c-.26-.1-.39-.28-.35-.49A.44.44,0,0,1,5,48.62a1.66,1.66,0,0,1,.52.15s0,.14.06.21-.15,0-.2,0a.49.49,0,0,0-.49-.09.24.24,0,0,0-.12.15.19.19,0,0,0,.09.16c.14.07.3.12.44.18a.45.45,0,0,1,.33.4C5.64,50.11,5.44,50.28,5,50.28Z"/><path d="M2.83,49.63a3.89,3.89,0,0,1,0,.47c0,.06-.07.16-.12.17s-.14-.08-.14-.17c0-.42,0-.84,0-1.25,0-.14.06-.19.2-.19H3.2a.45.45,0,0,1,.47.48.46.46,0,0,1-.45.49Zm0-.23c.19,0,.39.07.51-.13a.32.32,0,0,0,0-.28c-.12-.17-.32-.1-.5-.1Z"/><path d="M.3,48.88v.46a3.7,3.7,0,0,1,.41,0c.05,0,.1.07.15.1s-.09.1-.15.11a3.66,3.66,0,0,1-.42,0V50H.88c.09,0,.19,0,.17.13a.21.21,0,0,1-.16.11c-.23,0-.45,0-.68,0A.16.16,0,0,1,0,50.09q0-.64,0-1.27c0-.12.05-.17.18-.17s.44,0,.66,0c.06,0,.11.07.16.11s-.1.1-.16.1S.5,48.88.3,48.88Z"/><path d="M1.57,49.56V50c.2,0,.4,0,.59,0s.11.07.17.11-.11.12-.18.12c-.22,0-.44,0-.66,0s-.19-.06-.19-.19c0-.41,0-.82,0-1.24,0-.13,0-.19.18-.19s.44,0,.66,0c.06,0,.11.07.17.11s-.11.1-.17.11-.37,0-.56,0v.46a1.33,1.33,0,0,1,.25,0c.11,0,.3-.09.3.1s-.2.09-.31.11A1.2,1.2,0,0,1,1.57,49.56Z"/><path d="M9.68,49.66c-.06.19-.09.34-.15.48s-.08.13-.12.13a.22.22,0,0,1-.15-.12c-.11-.25-.21-.51-.3-.77A.23.23,0,0,1,9,49.17c.11-.06.15,0,.18.13l.18.54c.06-.21.1-.37.15-.53s.09-.11.14-.16.11.1.14.16.09.31.15.53l.18-.55c0-.09.08-.19.19-.13s.07.15,0,.21c-.08.26-.18.52-.29.77,0,.05-.1.12-.14.12s-.11-.08-.13-.14S9.73,49.85,9.68,49.66Z"/><path d="M20,49.84c.06-.2.1-.36.15-.51a.69.69,0,0,1,.13-.17c0,.05.11.1.14.16s.1.32.15.52c.07-.21.12-.38.19-.54s.12-.13.17-.12.09.11.06.2c-.1.25-.19.51-.29.77,0,.05-.09.13-.14.13s-.11-.08-.13-.13a4.28,4.28,0,0,0-.16-.43c0,.14-.07.28-.12.42s-.08.13-.13.14-.12-.07-.14-.12c-.11-.26-.21-.52-.3-.78,0-.05,0-.13.05-.19s.14.06.17.11S19.92,49.62,20,49.84Z"/><path d="M15.2,49.21a4.06,4.06,0,0,1,0-.47c0-.07.08-.13.12-.19s.12.12.12.18c0,.37,0,.74,0,1.11a.41.41,0,0,1-.37.43c-.34,0-.53-.06-.61-.33l0-.09C14.36,49.33,14.68,49,15.2,49.21Zm0,.48,0,0c-.05-.09-.09-.21-.17-.27a.31.31,0,0,0-.26,0c-.13.06-.17.34-.09.52a.23.23,0,0,0,.27.16c.21,0,.21-.21.2-.38C15.2,49.7,15.2,49.69,15.2,49.68Z"/><path d="M23.67,49.62,24,50c.06.07.12.17,0,.23s-.15,0-.2-.08-.21-.27-.34-.44a.89.89,0,0,0-.06.18,1.79,1.79,0,0,1,0,.25s-.08.12-.12.11-.09-.07-.12-.12,0-.07,0-.11c0-.43,0-.86,0-1.29,0-.07.07-.19.12-.19s.13.09.13.19c0,.25,0,.5,0,.78.15-.12.27-.22.4-.3s.17-.05.21,0,0,.16-.07.21Z"/><path d="M27.7,50.2a.51.51,0,0,1-.53,0,.33.33,0,0,1-.13-.38c.05-.19.11-.21.68-.26a.16.16,0,0,0-.15-.21.63.63,0,0,0-.27.05c-.08,0-.16.08-.19,0a.21.21,0,0,1,.08-.18.59.59,0,0,1,.6,0c.18.08.2.25.2.43s0,.31,0,.47a.23.23,0,0,1-.09.17S27.78,50.23,27.7,50.2Zm0-.4a1.77,1.77,0,0,0-.33,0,.19.19,0,0,0-.12.13s.05.11.1.13S27.73,50,27.73,49.8Z"/><path d="M12.76,50.2a.5.5,0,0,1-.51,0,.32.32,0,0,1-.13-.38c.11-.35.43-.22.67-.27,0-.18-.09-.25-.28-.21,0,0-.08,0-.12,0h-.2c0-.07,0-.16.09-.2a.58.58,0,0,1,.6,0c.17.08.19.25.18.41s0,.32,0,.48,0,.15-.07.16S12.86,50.23,12.76,50.2Zm0-.41a1.65,1.65,0,0,0-.31,0s-.12.08-.12.12a.22.22,0,0,0,.11.16C12.64,50.15,12.79,50,12.8,49.79Z"/><path d="M8.1,49.8a.3.3,0,0,0,.44.23s.07-.05.11-.05.12,0,.14,0a.15.15,0,0,1,0,.14A.56.56,0,0,1,7.9,50a1.16,1.16,0,0,1,0-.56c.06-.24.3-.34.6-.28a.45.45,0,0,1,.34.46c0,.12,0,.19-.18.19Zm0-.22h.48a.22.22,0,0,0-.22-.23A.23.23,0,0,0,8.11,49.58Z"/><path d="M26.16,49.81c0,.22.17.31.4.24,0,0,.08-.05.13-.06a.49.49,0,0,1,.14,0c0,.05,0,.13,0,.16a.56.56,0,0,1-.86-.22,1.08,1.08,0,0,1,0-.49c.06-.26.31-.37.62-.31a.44.44,0,0,1,.33.49c0,.11-.05.16-.17.16h-.56Zm.47-.22c0-.16-.1-.24-.23-.24a.23.23,0,0,0-.24.24Z"/><path d="M18,49.8c0,.23.19.31.41.24,0,0,.07-.05.11-.05a.64.64,0,0,1,.16,0c0,.05,0,.12,0,.15a.66.66,0,0,1-.73,0,.74.74,0,0,1-.1-.76.49.49,0,0,1,.56-.25.43.43,0,0,1,.36.55.21.21,0,0,1-.16.09C18.34,49.81,18.16,49.8,18,49.8Zm.47-.22a.21.21,0,0,0-.24-.23.22.22,0,0,0-.23.23Z"/><path d="M22.14,49.71c0,.39-.17.57-.52.57s-.52-.19-.52-.56.18-.58.52-.58S22.14,49.33,22.14,49.71Zm-.25,0c0-.28-.17-.43-.38-.34a.32.32,0,0,0-.16.33c0,.14,0,.28.16.35S21.89,50,21.89,49.71Z"/><path d="M25.47,48.87c0,.35,0,.67,0,1,0,.05,0,.11,0,.16s0,.24-.13.24-.14-.15-.14-.25c0-.27,0-.55,0-.82,0-.1,0-.2,0-.32a2.55,2.55,0,0,1-.36,0s-.09-.07-.13-.11.09-.1.13-.11c.32,0,.64,0,1,0,0,0,.1.07.15.11s-.09.09-.14.1A2.44,2.44,0,0,1,25.47,48.87Z"/><path d="M13.59,49.23a.43.43,0,0,1,.48-.05c.18.07.19.24.2.41s0,.35,0,.52,0,.18-.14.16-.1-.1-.1-.16,0-.32,0-.48-.08-.26-.23-.25-.23.08-.24.25,0,.32,0,.48a.23.23,0,0,1-.13.17c-.12,0-.12-.08-.12-.17,0-.25,0-.5,0-.75a.23.23,0,0,1,.08-.17S13.5,49.2,13.59,49.23Z"/><path d="M11,50.3a2.18,2.18,0,0,1-.34-.14s0-.11-.07-.18a.9.9,0,0,1,.19,0c.1,0,.2.06.31.07s.1,0,.1-.07a.17.17,0,0,0-.07-.12,2.23,2.23,0,0,0-.25-.09.32.32,0,0,1-.25-.35.29.29,0,0,1,.32-.27,1.19,1.19,0,0,1,.41.09s0,.11.05.17a.62.62,0,0,1-.17,0,2,2,0,0,0-.22-.07s-.09.05-.14.08a.48.48,0,0,0,.09.11.79.79,0,0,0,.17.06c.26.09.35.2.31.4S11.21,50.28,11,50.3Z"/><path d="M4.17,49.45c0,.21,0,.42,0,.63s0,.19-.13.19-.14-.09-.14-.19c0-.42,0-.85,0-1.27,0-.06.09-.13.14-.19s.12.12.13.18S4.17,49.24,4.17,49.45Z"/><path d="M18.94,49.12c.05-.09.11-.27.16-.27s.1.2.16.28l.18.15-.21.16c0,.13,0,.32,0,.5s.08.08.12.13l.09.12s-.09.08-.14.08A.29.29,0,0,1,19,50c0-.14,0-.27,0-.41a.2.2,0,0,0-.1-.21c-.16-.11,0-.16.1-.21Z"/><path d="M22.62,49.23a1.33,1.33,0,0,1,.24-.08s.1.06.1.09a.15.15,0,0,1-.08.12c-.29.11-.29.11-.29.42a1.78,1.78,0,0,1,0,.34c0,.06-.09.1-.13.15s-.1-.1-.1-.15c0-.25,0-.5,0-.75a.27.27,0,0,1,.08-.19S22.55,49.21,22.62,49.23Z"/><path d="M17.39,40.91c-.4,0-.78,0-1.17,0a.3.3,0,0,1-.19-.14L14.4,38l-.09-.14v3H13V35.8h1.39c.06,0,.13.08.16.13L16,38.19l.12.18V35.82h1.27Z"/><path d="M9.78,35.81V37H7.49v.77H9.34v1.13H7.49v.82H9.77V40.9H5.95V35.81Z"/><path d="M21.52,37.05H20.46V35.82h3.6v1.24H23V40.9H21.52Z"/></g></g></svg>